<svg width="1440" height="708" viewBox="0 0 1440 708" fill="none" xmlns="http://www.w3.org/2000/svg">
<rect y="-10" width="1445" height="718" fill="#103151"/>
<path fill-rule="evenodd" clip-rule="evenodd" d="M198.87 420.652C223.002 442.308 264.775 438.133 301.702 434.445C374.87 427.12 449.857 414.378 530.95 395.455C554.937 389.865 579.252 383.348 602.762 377.072C653.459 363.522 705.865 349.51 758.367 343.6C836.077 334.885 915.09 340.28 989.37 346.53C1057.44 352.293 1135.77 355.832 1203.91 325.095C1255.52 301.803 1298.14 260.605 1327.16 205.955C1354.7 154.087 1367.22 94.09 1362.39 37.02C1356.25 -35.745 1328.69 -99.76 1284.79 -143.228C1266.9 -160.94 1245.74 -175.833 1225.28 -190.237C1193.56 -212.565 1160.76 -235.647 1140.52 -269.34C1109.54 -320.902 1121.52 -389.59 1167.8 -425.697C1225.86 -471 1303.91 -441.25 1334.78 -426.345C1356.17 -416.03 1376.79 -403.848 1396.71 -392.08C1436.28 -368.717 1477.18 -344.558 1525.25 -334.39C1588.85 -320.95 1654.23 -326.26 1717.41 -331.4L1723.56 -331.9C1848.83 -342.055 1977.71 -342.995 2056.52 -235.905C2086.84 -194.705 2104.72 -145.475 2122.03 -97.868C2128.74 -79.36 2135.7 -60.22 2143.29 -41.825C2147.49 -31.583 2151.96 -21.23 2156.25 -11.21C2177.96 39.217 2200.39 91.368 2200.93 147.592C2201.61 219.625 2159.58 277.72 2116.46 331.027L2107.06 342.647C2062.72 397.36 2020.85 449.045 1986.38 510.567C1981.18 519.87 1976.18 529.27 1970.85 539.23C1944.78 588.13 1917.83 638.69 1872.39 667.04C1818.63 700.58 1751.15 690.33 1691.61 681.27L1688.02 680.74C1613.82 669.48 1541.04 661.23 1466.71 683.91C1427.37 695.87 1390.35 714.38 1354.54 732.27C1325.37 746.85 1295.21 761.91 1264.15 773.24C1255.31 776.46 1246.49 779.66 1237.69 782.83C1176.07 805.05 1117.88 826.05 1061.17 858.74C1009.45 888.55 965.57 924.26 919.11 962.11C909.7 969.77 900.26 977.44 890.73 985.11C868.827 1002.68 847.697 1016.94 827.02 1028H847.185C863.58 1018.18 880.16 1006.54 897 993.04C906.56 985.35 916.01 977.66 925.43 969.99C971.58 932.42 1015.15 896.95 1066.17 867.53C1122.1 835.3 1179.9 814.45 1241.08 792.36C1249.89 789.18 1258.73 786.01 1267.58 782.76C1299.17 771.24 1329.59 756.05 1359.01 741.36C1394.45 723.63 1431.08 705.34 1469.61 693.6C1541.95 671.55 1613.5 679.66 1686.53 690.75L1690.12 691.3C1751.35 700.61 1820.78 711.16 1877.71 675.63C1925.42 645.87 1953.03 594.09 1979.74 544.01C1985.01 534.1 1989.99 524.753 1995.17 515.55C2029.21 454.782 2070.8 403.415 2114.87 349.045L2124.27 337.425C2166.61 285.08 2211.72 222.897 2210.99 147.495C2210.46 89.217 2187.6 36.118 2165.51 -15.237C2161.21 -25.223 2156.77 -35.55 2152.57 -45.705C2145.07 -63.908 2138.17 -82.937 2131.47 -101.345C2113.94 -149.638 2095.8 -199.562 2064.6 -241.947C1982.74 -353.2 1850.83 -352.382 1722.76 -342.007L1716.61 -341.507C1654.11 -336.428 1589.51 -331.167 1527.3 -344.315C1480.84 -354.14 1442.46 -376.81 1401.81 -400.82C1381.69 -412.697 1360.89 -424.99 1339.13 -435.49C1306.58 -451.2 1224.13 -482.473 1161.64 -433.708C1111.38 -394.498 1098.32 -319.985 1131.91 -264.09C1153.25 -228.567 1186.94 -204.862 1219.52 -181.925C1239.64 -167.765 1260.45 -153.115 1277.74 -136.002C1319.93 -94.23 1346.43 -32.485 1352.37 37.875C1362.23 154.6 1298.05 271.505 1199.78 315.843C1133.84 345.603 1057.03 342.088 990.21 336.447C915.43 330.125 835.857 324.705 757.254 333.543C704.01 339.522 651.225 353.635 600.187 367.282C576.75 373.532 552.507 380.027 528.68 385.567C448.002 404.393 373.442 417.088 300.64 424.362C265.837 427.83 226.397 431.785 205.572 413.082C194.842 403.465 189.457 388.548 189.115 367.478C188.262 313.938 209.685 257.797 252.787 200.645C261.37 189.255 270.207 177.792 278.752 166.697C312.932 122.322 348.282 76.438 375.75 25.485C406.255 -31.07 435.967 -98.317 466.607 -180.08C497.6 -262.795 509.087 -336.917 501.702 -406.68C499.247 -429.97 494.182 -451.518 487.31 -472H476.737C483.915 -451.26 489.177 -429.482 491.705 -405.605C498.907 -337.455 487.615 -264.86 457.195 -183.658C426.715 -102.322 397.185 -35.5 366.912 20.652C339.825 70.87 304.74 116.428 270.805 160.482C262.237 171.603 253.385 183.09 244.767 194.515C200.272 253.513 178.167 311.765 179.057 367.647C179.435 391.697 185.917 409.03 198.87 420.652Z" fill="#4D7495" fill-opacity="0.2"/>
<path fill-rule="evenodd" clip-rule="evenodd" d="M541.79 1017.58C528.68 1013.18 515.13 1008.62 501.932 1004.42C438.482 984.22 366.667 958.22 317.472 904.91C280.34 864.67 270.5 810.79 260.979 758.67C258.38 744.41 255.692 729.68 252.482 715.47C244.635 680.71 234.965 645.85 222.917 608.91C219.22 597.53 215.715 585.64 212.334 574.12C205.057 549.36 197.527 523.777 187.102 500.192C171.427 464.793 140.787 454.952 115.837 450.315C84.417 444.505 51.115 437.473 19.817 421.335C-29.061 396.115 -64.498 352.513 -91.695 284.128C-105.598 249.155 -118.05 212.925 -130 177.428V208.737C-120.893 235.24 -111.373 261.888 -101.033 287.888C-73.275 357.713 -35.238 404.317 15.227 430.345C47.747 447.115 81.865 454.343 114.017 460.3C147.917 466.575 167.022 479.732 177.897 504.317C188.067 527.293 195.5 552.56 202.677 577C206.084 588.57 209.612 600.56 213.36 612.06C225.31 648.7 234.892 683.27 242.667 717.72C245.83 731.74 248.49 746.36 251.08 760.5C260.857 814.04 270.977 869.41 310.1 911.81C360.967 966.94 434.22 993.5 498.907 1014.08C512.017 1018.26 525.53 1022.8 538.602 1027.2C539.397 1027.46 540.202 1027.73 540.995 1028H573.1C562.602 1024.58 552.165 1021.07 541.79 1017.58Z" fill="#4D7495" fill-opacity="0.2"/>
<path fill-rule="evenodd" clip-rule="evenodd" d="M1422.93 -441.055C1473.93 -414.773 1522.08 -389.945 1578.47 -380.118C1637.87 -369.777 1697.49 -378.737 1755.13 -387.418C1770.46 -389.725 1786.31 -392.105 1801.91 -394.083C1879.15 -403.922 1936.72 -397.695 1988.5 -373.94C2039.29 -350.638 2083.92 -311.147 2114.14 -262.735C2138.5 -223.697 2151.35 -178.592 2163.78 -134.965C2170.17 -112.502 2176.79 -89.285 2184.89 -67.178C2190.68 -51.37 2197.42 -35.135 2203.91 -19.437C2225.61 33.042 2248.08 87.29 2245.1 143.893C2240.46 231.43 2186.46 297.322 2134.21 361.058C2103.28 398.8 2071.27 437.84 2049.34 481.272C2008.28 562.69 1995 634.35 2009.87 694.26C2013.36 708.32 2017.53 722.07 2021.56 735.35C2037.72 788.69 2053.01 839.08 2018.31 894.21C2004.79 915.7 1989.65 936.01 1975.03 955.64C1957.86 978.68 1940.31 1002.27 1925.22 1028H1928.15C1943 1002.88 1960.21 979.76 1977.03 957.17C1991.71 937.5 2006.86 917.13 2020.44 895.58C2055.74 839.45 2040.31 788.52 2023.96 734.62C2019.95 721.36 2015.8 707.66 2012.31 693.65C1997.59 634.35 2010.82 563.28 2051.59 482.42C2073.39 439.23 2105.3 400.315 2136.16 362.668C2188.65 298.617 2242.92 232.395 2247.59 144.027C2250.61 86.85 2228.06 32.322 2206.23 -20.413C2199.74 -36.087 2193.02 -52.297 2187.26 -68.058C2179.18 -90.078 2172.59 -113.248 2166.19 -135.66C2153.71 -179.458 2140.83 -224.748 2116.26 -264.078C2085.77 -312.905 2040.78 -352.737 1989.55 -376.235C1937.31 -400.21 1879.35 -406.485 1801.59 -396.598C1785.97 -394.62 1770.1 -392.228 1754.76 -389.92C1697.29 -381.277 1637.89 -372.342 1578.91 -382.62C1522.88 -392.385 1474.88 -417.118 1424.08 -443.313C1416.68 -447.123 1409.28 -450.943 1401.83 -454.728C1390.24 -460.598 1378.45 -466.445 1366.47 -472H1360.43C1374.09 -465.788 1387.53 -459.145 1400.71 -452.458C1408.16 -448.685 1415.56 -444.865 1422.93 -441.055Z" fill="#4D7495" fill-opacity="0.2"/>
<path fill-rule="evenodd" clip-rule="evenodd" d="M1186.59 -153.982C1155.61 -179.13 1123.58 -205.13 1100.3 -238.515C1064.42 -289.993 1062.7 -361.393 1095.91 -420.4C1107.55 -441.08 1122.39 -458.462 1139.49 -472H1135.49C1119.17 -458.56 1104.97 -441.63 1093.72 -421.645C1060.04 -361.795 1061.81 -289.335 1098.23 -237.062C1121.71 -203.373 1153.9 -177.26 1185.01 -152.018C1204.24 -136.405 1224.14 -120.268 1241.69 -102.542C1286.83 -56.985 1310.49 6.44202 1306.6 71.458C1302.59 138.205 1270.46 200.107 1218.44 241.283C1140.01 303.343 1043.68 298.447 950.52 293.735C900.35 291.195 848.467 288.56 799.955 296.407C785.442 298.753 770.77 300.633 756.572 302.438C740.47 304.49 723.807 306.612 707.33 309.445C678.337 314.425 649.125 320.675 620.88 326.73C610.905 328.855 600.932 331.003 590.947 333.077L585.209 334.275C522.147 347.457 450.665 362.425 385.112 355.93C346.207 352.072 316.227 338.18 300.687 316.817C288.847 300.522 285.392 280.16 290.435 256.295C299.285 214.328 323.895 177.475 347.685 141.83C360.65 122.422 374.04 102.353 384.6 81.833C404.167 43.783 419.377 2.78 434.075 -36.868C437.75 -46.768 441.41 -56.655 445.135 -66.482C451.152 -82.328 457.487 -98.355 463.615 -113.857C476.115 -145.45 489.042 -178.115 499.845 -211.002C530.132 -303.2 537.15 -387.235 521.294 -472H518.729C534.625 -387.502 527.655 -303.737 497.452 -211.795C486.675 -178.995 473.772 -146.353 461.285 -114.797C455.145 -99.283 448.807 -83.255 442.79 -67.385C439.055 -57.56 435.392 -47.66 431.72 -37.76C417.032 1.828 401.86 42.757 382.365 80.672C371.88 101.06 358.512 121.067 345.597 140.415C321.672 176.268 296.927 213.328 287.97 255.77C282.78 280.367 286.382 301.412 298.662 318.308C314.63 340.28 345.245 354.537 384.854 358.445C450.797 364.987 522.49 349.973 585.722 336.765L591.459 335.567C601.445 333.47 611.43 331.345 621.405 329.197C649.627 323.165 678.812 316.915 707.745 311.96C724.175 309.128 740.812 307.005 756.89 304.952C771.11 303.147 785.807 301.268 800.347 298.91C848.6 291.11 900.35 293.735 950.39 296.263C1044.02 301.01 1140.83 305.905 1219.99 243.27C1272.58 201.645 1305.06 139.085 1309.1 71.615C1313.04 5.86798 1289.11 -58.268 1243.48 -104.337C1225.82 -122.158 1205.88 -138.333 1186.59 -153.982Z" fill="#4D7495" fill-opacity="0.2"/>
<path fill-rule="evenodd" clip-rule="evenodd" d="M1138.31 -132.717C1120.46 -149.54 1102.01 -166.935 1085.6 -185.5C1035.09 -242.643 1017.19 -306.337 1032.4 -374.783C1040.42 -410.868 1054.22 -444.155 1072.09 -472H1069.11C1051.49 -444.18 1037.89 -411.112 1029.95 -375.345C1014.54 -306.045 1032.63 -241.605 1083.72 -183.817C1100.2 -165.165 1118.7 -147.732 1136.59 -130.875C1165.9 -103.25 1196.21 -74.685 1218.36 -40.078C1254.9 16.99 1256.78 83.712 1223.38 138.413C1183.15 204.33 1115.36 227.987 1065.58 236.228C1016.84 244.297 966.19 246.152 917.22 247.935C890.51 248.91 862.907 249.913 835.99 251.925C785.93 255.65 735.662 263.34 687.04 270.76C659.294 275.01 630.62 279.393 602.275 282.992L601.957 283.03C553.595 289.183 503.582 295.553 456.695 284.482C433.342 278.978 416.435 269.223 406.425 255.515C387.945 230.185 396.952 196.178 407.78 163.522C418.352 131.625 428.544 99.007 438.395 67.465C451.847 24.41 465.752 -20.12 480.827 -63.43C488.25 -84.757 496.439 -106.362 504.35 -127.26C523.49 -177.775 543.29 -230.007 554.35 -283.585C566.85 -344.132 568.717 -407.473 559.952 -472H557.415C566.192 -407.645 564.36 -344.473 551.885 -284.098C540.862 -230.728 521.11 -178.592 502.007 -128.165C494.072 -107.255 485.882 -85.623 478.459 -64.272C463.372 -20.913 449.455 23.63 435.99 66.708C426.14 98.24 415.959 130.845 405.387 162.717C397.245 187.325 383.597 228.5 404.4 257.015C414.775 271.225 432.169 281.295 456.12 286.947C474.967 291.402 494.28 293.063 513.762 293.063C543.205 293.063 573.04 289.268 602.275 285.545L602.592 285.508C630.962 281.895 659.66 277.513 687.419 273.275C735.99 265.842 786.209 258.175 836.175 254.44C863.042 252.438 890.63 251.438 917.3 250.46C966.36 248.678 1017.09 246.822 1065.99 238.73C1116.29 230.405 1184.78 206.467 1225.53 139.743C1259.44 84.19 1257.56 16.453 1220.49 -41.445C1198.16 -76.322 1167.73 -104.995 1138.31 -132.717Z" fill="#4D7495" fill-opacity="0.2"/>
<path fill-rule="evenodd" clip-rule="evenodd" d="M1034.93 -190.018C994.41 -242.422 980.28 -305.545 994.05 -372.538C999.03 -396.72 1008.51 -433.535 1025.46 -472H1022.71C1005.96 -433.695 996.55 -397.135 991.59 -373.05C977.65 -305.3 991.96 -241.482 1032.94 -188.455C1047.61 -169.485 1065.2 -151.005 1083.82 -131.425C1140.75 -71.61 1199.61 -9.75702 1183.01 74.337C1166.41 158.36 1070.72 183.458 989.2 195.933C961.22 200.217 932.58 203.257 904.88 206.21C889.36 207.87 873.33 209.58 857.584 211.485C840.325 213.572 823.027 215.768 805.729 217.978C747.392 225.413 687.077 233.103 627.617 236.215C544.437 240.585 495.537 219.76 482.267 174.362C473.467 144.26 476.995 110.678 481.365 78.88C481.937 74.74 482.035 68.942 482.145 62.228C482.427 45.993 482.817 23.752 491.13 17.112L491.459 16.708C495.83 8.38202 496.917 -1.27197 497.955 -10.61C498.357 -14.248 498.747 -17.678 499.31 -21.047C501.762 -35.623 506.535 -50.185 511.15 -64.272L512.725 -69.107C521.635 -96.5 532.207 -123.795 542.437 -150.21C546.905 -161.77 551.542 -173.732 555.975 -185.538C582.939 -257.437 597.002 -330.08 597.76 -401.467C598.015 -424.88 596.685 -448.685 595.147 -472H592.632C594.169 -448.685 595.5 -424.868 595.245 -401.493C594.487 -330.41 580.472 -258.047 553.617 -186.44C549.187 -174.638 544.56 -162.685 540.092 -151.125C529.85 -124.685 519.267 -97.355 510.345 -69.9L508.757 -65.067C504.117 -50.895 499.31 -36.232 496.83 -21.475C496.257 -18.033 495.842 -14.408 495.452 -10.893C494.45 -1.87 493.4 7.44199 489.347 15.305C480.314 22.848 479.937 44.638 479.632 62.18C479.522 68.82 479.425 74.545 478.875 78.538C474.467 110.605 470.902 144.493 479.85 175.07C492.327 217.757 534.99 239.315 606.792 239.315C613.517 239.315 620.512 239.132 627.74 238.755C687.297 235.63 747.66 227.94 806.047 220.493C823.345 218.283 840.617 216.085 857.877 213.998C873.61 212.095 889.64 210.385 905.14 208.737C932.88 205.783 961.55 202.72 989.58 198.435C1065.49 186.813 1168.39 161.362 1185.48 74.825C1202.34 -10.55 1143.01 -72.89 1085.64 -133.183C1067.06 -152.7 1049.52 -171.145 1034.93 -190.018Z" fill="#4D7495" fill-opacity="0.2"/>
<path fill-rule="evenodd" clip-rule="evenodd" d="M980.53 -132.255C948.05 -173.502 914.47 -216.14 904.2 -268.29C893.85 -320.95 910.08 -373.283 925.76 -423.893C930.67 -439.712 935.66 -455.998 939.77 -472H937.17C933.11 -456.252 928.19 -440.225 923.36 -424.65C907.57 -373.732 891.25 -321.085 901.74 -267.788C912.11 -215.055 945.89 -172.158 978.56 -130.68C986.42 -120.695 994.55 -110.38 1002.09 -100.223C1050.94 -34.39 1059.45 19.078 1027.36 58.7C995.89 97.567 939.29 111.422 897.94 121.542C851.507 132.908 796.647 144.515 741.825 144.515H741.814C721.697 144.515 702.325 142.917 684.27 139.768C618.352 128.257 581.72 84.225 575.37 9.005C575.237 -52.335 599.005 -109.695 621.977 -165.178C624.455 -171.132 626.922 -177.078 629.35 -183.022C656.095 -248.428 669 -308.085 669.939 -370.768L670.084 -381.058C670.5 -410.305 670.939 -441.422 673.747 -472H671.207C668.425 -441.422 667.985 -410.33 667.57 -381.083L667.425 -370.803C666.485 -308.45 653.642 -249.087 627.02 -183.987C624.59 -178.055 622.125 -172.11 619.657 -166.152C596.587 -110.44 572.722 -52.835 572.867 9.11499C579.314 85.74 616.655 130.54 683.83 142.27C702.042 145.445 721.55 147.055 741.814 147.055H741.825C796.917 147.055 851.957 135.397 898.54 123.995C940.23 113.803 997.31 99.825 1029.31 60.3C1062.23 19.663 1053.74 -34.855 1004.11 -101.737C996.54 -111.93 988.41 -122.257 980.53 -132.255Z" fill="#4D7495" fill-opacity="0.2"/>
<path fill-rule="evenodd" clip-rule="evenodd" d="M462.005 -411.38C457.06 -432.145 449.222 -452.603 439.115 -472H436.297C446.587 -452.445 454.557 -431.777 459.562 -410.783C474.517 -348.075 467.044 -281.192 435.345 -193.925C407.232 -116.555 375.225 -47.817 340.202 10.385C311.43 58.2 275.885 96.908 238.25 137.888C228.52 148.495 218.45 159.458 208.597 170.505C198.37 181.955 188.187 193.783 178.337 205.223C164.555 221.237 150.297 237.777 135.747 253.563C132.927 256.6 130.057 259.8 127.117 263.07C108.525 283.725 87.455 307.125 62.479 315.987C55.645 318.405 48.662 319.65 41.705 319.65H41.692C-7.968 319.625 -48.593 257.395 -63.753 230.638C-91.085 182.395 -111.25 129.928 -130 78.232V85.592C-111.873 135.275 -92.22 185.495 -65.938 231.895C-46.833 265.61 -7.44299 322.165 41.692 322.165H41.705C48.942 322.165 56.217 320.895 63.31 318.38C88.897 309.3 110.185 285.643 128.972 264.768C131.915 261.507 134.782 258.322 137.59 255.283C152.177 239.475 166.435 222.91 180.242 206.895C190.08 195.455 200.26 183.64 210.467 172.19C220.305 161.167 230.375 150.205 240.104 139.61C277.825 98.533 313.457 59.737 342.35 11.703C377.457 -46.645 409.537 -115.53 437.712 -193.058C469.584 -280.812 477.08 -348.147 462.005 -411.38Z" fill="#4D7495" fill-opacity="0.2"/>
<path fill-rule="evenodd" clip-rule="evenodd" d="M893.75 -154.592C880.45 -169.18 866.705 -184.268 855.035 -199.783C832.682 -229.482 821.452 -255.19 819.682 -280.68C817.742 -308.67 829.032 -334.987 839.957 -360.453C842.632 -366.665 845.39 -373.098 847.867 -379.385C856.34 -400.808 870.61 -437.002 874.76 -472H872.23C868.082 -437.443 853.91 -401.54 845.537 -380.325C843.06 -374.075 840.312 -367.655 837.652 -361.453C826.604 -335.72 815.189 -309.11 817.167 -280.495C818.975 -254.495 830.365 -228.36 853.02 -198.257C864.762 -182.645 878.56 -167.52 891.9 -152.885C919.22 -122.902 947.48 -91.897 961.33 -53.873C982.01 2.90201 942.12 43.87 897.89 63.29C860.43 79.732 815.787 89.17 775.419 89.17C732.669 89.17 657.877 77.792 637.26 1.78C632.365 -40.822 642.4 -86.575 667.07 -134.208C674.662 -148.868 683.745 -163.505 692.51 -177.652C708.66 -203.703 725.36 -230.643 734.392 -259.89C745.512 -295.89 740.985 -334.135 736.602 -371.11C733.27 -399.32 729.814 -428.495 733.33 -456.473C733.952 -461.428 734.942 -466.652 736.235 -472H733.66C732.402 -466.763 731.437 -461.66 730.827 -456.79C727.275 -428.495 730.754 -399.172 734.112 -370.803C738.457 -334.098 742.95 -296.12 731.987 -260.647C723.052 -231.705 706.437 -204.91 690.372 -178.995C681.584 -164.81 672.477 -150.125 664.837 -135.38C639.922 -87.283 629.802 -41.042 634.807 2.255C655.887 80.087 731.962 91.708 775.419 91.708H775.432C816.129 91.708 861.125 82.2 898.89 65.61C944.17 45.737 984.98 3.672 963.69 -54.74C949.66 -93.24 921.24 -124.43 893.75 -154.592Z" fill="#4D7495" fill-opacity="0.2"/>
<path fill-rule="evenodd" clip-rule="evenodd" d="M423.32 -398.685C414.055 -426.26 396.122 -453.97 371.685 -472H367.314C392.79 -454.41 411.455 -426.078 420.939 -397.88C437.895 -347.475 435.442 -288.822 413.457 -218.558C392.985 -153.178 360.82 -83.817 320.415 -17.985C284.832 40 239.74 85.092 182.987 134.958C180.462 137.18 177.85 139.5 175.14 141.893C138.945 173.973 89.372 217.917 41.07 217.917H41.057C33.415 217.917 25.97 216.77 18.937 214.522C-29.158 199.118 -56.868 150.547 -79.658 100.34C-101.35 52.547 -116.62 1.97501 -130 -48.393V-38.675C-117.171 8.785 -102.413 56.295 -81.94 101.4C-58.918 152.12 -30.856 201.23 18.18 216.94C25.457 219.26 33.147 220.445 41.057 220.445C41.07 220.445 41.07 220.445 41.07 220.445C90.325 220.445 140.312 176.145 176.8 143.795C179.51 141.402 182.122 139.085 184.635 136.875C241.57 86.85 286.81 41.598 322.552 -16.652C363.067 -82.658 395.33 -152.212 415.85 -217.8C438.017 -288.59 440.459 -347.77 423.32 -398.685Z" fill="#4D7495" fill-opacity="0.2"/>
<path fill-rule="evenodd" clip-rule="evenodd" d="M307.292 -404.02C278.35 -404.02 243.937 -388.493 205.01 -357.877C147.015 -312.26 85.2702 -272.732 27.1892 -236.808C23.6972 -234.647 20.1572 -232.485 16.6072 -230.325C-6.2948 -216.397 -29.9628 -201.98 -47.7128 -181.875C-72.6148 -153.652 -78.8278 -117.055 -79.6458 -91.3216C-79.8648 -84.2076 -79.8048 -76.4296 -79.4378 -67.5446C-69.0128 -1.3696 -52.7648 66.1354 -4.99979 110.592C12.1752 126.56 32.3302 134.665 54.9002 134.665H54.9122C96.5022 134.665 139.225 107.712 167.755 87.4354C263.372 19.4934 336.505 -90.2246 373.675 -221.475C386.712 -267.52 399.967 -333.61 364.715 -375.808C349.064 -394.523 329.752 -404.02 307.292 -404.02ZM54.9122 137.192H54.9002C31.6692 137.192 10.9422 128.868 -6.69779 112.447C-55.0378 67.4654 -71.4298 -0.526611 -81.9398 -67.2996C-82.3198 -76.3946 -82.3798 -84.2316 -82.1598 -91.4096C-81.3178 -117.558 -74.9948 -154.775 -49.5928 -183.56C-31.5998 -203.945 -7.7478 -218.46 15.3122 -232.498C18.8522 -234.658 22.3802 -236.808 25.8722 -238.967C83.8922 -274.857 145.562 -314.335 203.472 -359.877C242.84 -390.848 277.775 -406.558 307.292 -406.558C330.522 -406.558 350.492 -396.755 366.642 -377.445C402.665 -334.317 389.287 -267.385 376.092 -220.78C338.775 -88.9796 265.3 21.2254 169.207 89.5104C140.41 109.982 97.2092 137.192 54.9122 137.192Z" fill="#4D7495" fill-opacity="0.2"/>
<path fill-rule="evenodd" clip-rule="evenodd" d="M838.834 372.532C826.47 372.532 814.3 372.947 802.677 373.825C723.442 379.66 647.672 400.755 584.002 420.628C563.775 426.95 542.765 432.81 522.452 438.497C473.552 452.145 422.99 466.282 377.117 488.133C338.86 506.37 294.437 541.99 300.09 608.15C317.657 719.46 367.265 868.11 503.85 943.77C575.895 983.67 644.622 1006.05 708.122 1010.33C712.772 1010.64 717.497 1010.81 722.16 1010.81C777.347 1010.81 832.817 989.47 896.73 943.65C910.27 933.93 923.87 923.92 937.02 914.28C982.07 881.15 1028.65 846.9 1079.26 819.67C1106.25 805.17 1134.77 792.11 1162.34 779.49C1201.48 761.57 1241.95 743.06 1278.75 720.02C1295.27 709.69 1311.59 698.14 1327.36 686.99C1367.83 658.35 1409.67 628.73 1459.4 616.33C1484.89 609.96 1512.38 606.98 1545.85 606.98C1571.61 606.98 1597.83 608.76 1623.2 610.5C1641.71 611.74 1660.84 613.06 1679.42 613.62C1687.33 613.87 1694.68 613.99 1701.88 613.99C1749.83 613.99 1820.1 609.15 1876.42 567.41C1913.28 540.08 1941.78 502.902 1969.34 466.915C1979.98 453.025 1990.99 438.67 2002.3 425.12C2014.09 411.008 2026.42 396.897 2038.36 383.25C2071.95 344.87 2106.69 305.173 2133.16 260.495C2168.14 201.388 2172.81 133.48 2147 58.6883C2123.73 -8.76773 2092.36 -79.4097 2053.76 -151.297C2021.49 -211.368 1979.21 -252.445 1928.03 -273.38C1884.72 -291.105 1836.63 -299.355 1776.69 -299.355C1737.65 -299.355 1697.51 -295.877 1658.67 -292.507C1620 -289.163 1580.01 -285.697 1541.29 -285.697C1527.35 -285.697 1514.51 -286.123 1501.98 -287.002C1465.17 -289.615 1434.31 -296.487 1407.69 -308.022C1387.5 -316.775 1369.34 -329.482 1351.77 -341.775C1340.43 -349.697 1328.7 -357.9 1316.56 -364.945C1292.95 -378.652 1272.28 -385.305 1253.38 -385.305C1245.39 -385.305 1237.61 -384.098 1230.25 -381.692C1200.15 -371.877 1184.68 -344.692 1191.78 -314.03C1200.52 -276.223 1239.21 -253.763 1273.37 -233.962C1280.51 -229.812 1287.25 -225.895 1293.51 -221.962C1337.8 -194.143 1367.92 -143.888 1385.61 -68.3367C1400.64 -4.21475 1415.29 79.6233 1395.17 159.47C1377.9 227.95 1341.86 292.49 1296.28 336.52C1253.74 377.635 1194.51 397.63 1115.2 397.63C1068.79 397.63 1021.33 391.013 983.18 385.715C936.49 379.22 888.2 372.532 838.834 372.532ZM722.172 1013.33C722.172 1013.33 722.172 1013.33 722.16 1013.33C717.437 1013.33 712.662 1013.18 707.952 1012.86C644.084 1008.57 575.005 986.06 502.642 945.99C365.165 869.84 315.252 720.41 297.587 608.45C291.802 540.75 337.064 504.415 376.042 485.838C422.1 463.888 472.77 449.728 521.782 436.058C542.07 430.367 563.067 424.51 583.257 418.21C647.062 398.313 723.002 377.145 802.495 371.285C814.177 370.433 826.407 369.992 838.834 369.992C888.37 369.992 936.75 376.705 983.54 383.2C1021.59 388.497 1068.96 395.09 1115.2 395.09C1193.83 395.09 1252.48 375.34 1294.53 334.69C1339.79 290.975 1375.58 226.89 1392.73 158.848C1412.72 79.5383 1398.13 -3.90973 1383.17 -67.7517C1365.63 -142.618 1335.87 -192.362 1292.18 -219.815C1285.95 -223.72 1279.23 -227.627 1272.11 -231.765C1237.52 -251.835 1198.31 -274.575 1189.32 -313.455C1181.93 -345.475 1198.06 -373.868 1229.48 -384.11C1237.09 -386.588 1245.13 -387.845 1253.38 -387.845C1272.73 -387.845 1293.81 -381.07 1317.81 -367.143C1330.06 -360.05 1341.83 -351.81 1353.2 -343.85C1370.67 -331.632 1388.72 -319.01 1408.67 -310.355C1435.04 -298.928 1465.6 -292.118 1502.15 -289.53C1514.6 -288.65 1527.42 -288.223 1541.29 -288.223C1579.91 -288.223 1619.85 -291.69 1658.48 -295.035C1697.34 -298.405 1737.55 -301.895 1776.69 -301.895C1836.97 -301.895 1885.36 -293.583 1928.98 -275.723C1980.69 -254.567 2023.42 -213.1 2055.99 -152.505C2094.66 -80.4947 2126.08 -9.71973 2149.39 57.8573C2175.44 133.395 2170.71 202.01 2135.31 261.79C2108.74 306.662 2073.93 346.457 2040.26 384.933C2028.33 398.558 2015.99 412.668 2004.23 426.755C1992.95 440.255 1981.96 454.612 1971.34 468.478C1943.66 504.588 1915.07 541.92 1877.91 569.43C1820.98 611.64 1750.17 616.5 1701.88 616.5C1694.66 616.5 1687.28 616.4 1679.35 616.16C1660.72 615.57 1641.56 614.28 1623.03 613.01C1597.71 611.3 1571.51 609.52 1545.85 609.52C1512.58 609.52 1485.31 612.47 1459.99 618.77C1410.72 631.08 1369.08 660.54 1328.8 689.06C1313 700.24 1296.66 711.81 1280.08 722.19C1243.13 745.29 1202.59 763.84 1163.38 781.81C1135.84 794.41 1107.38 807.44 1080.45 821.92C1029.98 849.07 983.48 883.25 938.5 916.3C925.35 926 911.73 935.98 898.18 945.7C833.83 991.84 777.897 1013.33 722.172 1013.33Z" fill="#4D7495" fill-opacity="0.2"/>
<path fill-rule="evenodd" clip-rule="evenodd" d="M-18.6598 -42.4705C-13.8248 -12.6754 0.260233 39.4865 40.4222 56.7965C51.4952 61.5695 63.3952 63.9865 75.8102 63.9865C109.452 63.9865 147.807 46.6025 189.812 12.3025C257.842 -43.2285 310.675 -139.005 324.43 -231.705C328.74 -260.732 328.922 -298.245 305.327 -312.21C297.977 -316.555 289.495 -318.765 280.095 -318.765C247.99 -318.765 209.965 -293.375 184.807 -276.578C181.975 -274.685 179.277 -272.89 176.737 -271.217C162.162 -261.647 147.1 -252.36 132.525 -243.388C103.007 -225.21 72.5022 -206.413 45.0002 -184.5C25.2602 -168.777 8.85423 -149.967 -6.64777 -125.333C-20.5408 -103.237 -19.6858 -75.5905 -18.8548 -48.8555C-18.7948 -46.7205 -18.7198 -44.5834 -18.6598 -42.4705ZM75.8102 74.1295H75.7972C62.0302 74.1176 48.7852 71.4325 36.4552 66.1095C-8.27277 46.8345 -23.5428 -9.39047 -28.6578 -41.1905L-28.7178 -41.8605C-28.7798 -44.0705 -28.8398 -46.2924 -28.9128 -48.5385C-29.7548 -75.4904 -30.6948 -106.033 -15.1548 -130.752C0.970232 -156.388 18.0952 -175.993 38.7502 -192.447C66.7272 -214.737 97.5022 -233.695 127.262 -252.03C141.777 -260.978 156.792 -270.217 171.232 -279.703C173.76 -281.362 176.432 -283.145 179.24 -285.025C205.412 -302.493 244.95 -328.897 280.095 -328.897C291.312 -328.897 301.517 -326.223 310.43 -320.95C333.257 -307.437 341.312 -276.908 334.392 -230.215C320.28 -135.147 266.02 -36.8555 196.147 20.1745C152.312 55.9775 111.822 74.1295 75.8102 74.1295Z" fill="#4D7495" fill-opacity="0.2"/>
<path fill-rule="evenodd" clip-rule="evenodd" d="M395.025 637.23C419.732 759.37 503.702 872.68 609.025 925.9C648.612 945.89 691.277 956.49 732.39 956.49C757.927 956.49 782.987 952.49 806.852 944.58C859.917 927.05 907.36 893.33 953.26 860.74C966.48 851.34 980.16 841.62 993.64 832.54C1036.15 803.9 1081.07 777.54 1124.52 752.05C1148.34 738.06 1172.98 723.61 1196.87 708.98C1225.41 691.5 1251.83 669.48 1275.41 643.55C1288.36 629.32 1299.6 613.08 1310.48 597.38C1320.44 583 1330.75 568.14 1342.48 554.56C1362.71 531.17 1390.62 519.798 1427.79 519.798C1452.35 519.798 1477.59 524.51 1501.98 529.05C1511.11 530.76 1519.73 532.34 1528.15 533.69C1579.47 541.79 1632.53 550.19 1685.01 550.19C1710.72 550.19 1734.06 548.21 1756.35 544.16C1792.46 537.59 1824.93 525.46 1852.88 508.077C1872.71 495.75 1889.9 479.317 1906.5 463.45C1914.83 455.49 1923.44 447.287 1932.33 439.598C1947.98 426.072 1961.82 409.737 1975.22 393.918C1982.67 385.152 1990.36 376.072 1998.29 367.55C2001.28 364.378 2004.25 361.178 2007.23 357.98C2029.4 334.3 2052.33 309.787 2071.81 283.335C2101.69 242.795 2134.04 178.732 2118.49 103.77C2106.89 47.8732 2077.96 -4.33676 2049.98 -54.8248C2044.68 -64.3818 2039.19 -74.2828 2033.99 -83.9368C2006.47 -134.877 1970.71 -190.822 1913.78 -219.473C1870.49 -241.288 1820.17 -251.005 1750.64 -251.005C1738.82 -251.005 1725.96 -250.735 1711.28 -250.175L1703.45 -249.88C1633.94 -247.245 1562.06 -244.535 1497.44 -218.422C1430.91 -191.555 1432.82 -125.59 1440.46 -60.3168C1441.95 -47.5498 1443.71 -34.2798 1445.39 -21.4498C1453.13 37.4602 1461.14 98.3622 1452.57 156.235C1444.05 213.815 1420.27 269.112 1397.24 322.58C1393.25 331.883 1389.26 341.16 1385.39 350.362C1383.65 354.513 1381.92 358.713 1380.17 362.96C1370.61 386.277 1360.72 410.372 1345.41 430.393C1324.17 458.175 1292.63 464.28 1264.58 466.575C1255.68 467.308 1246.33 467.673 1236.78 467.673C1193.83 467.673 1150.33 460.3 1108.28 453.17C1096.05 451.095 1083.4 448.947 1071.11 447.067C1050.74 443.918 1029.97 440.305 1009.9 436.838C958.8 427.95 905.99 418.795 853.875 416.135C846.087 415.72 838.14 415.525 830.265 415.525C772.112 415.525 712.297 426.12 647.405 447.872C577.042 471.482 518.18 496.872 467.447 525.485C414.495 555.34 390.13 592.94 395.025 637.23ZM732.402 966.62H732.39C689.715 966.62 645.487 955.66 604.51 934.96C550.272 907.54 501.017 864.94 462.077 811.71C424.027 759.74 397.417 700.02 385.125 639.01L385.052 638.57C379.544 589.77 405.62 548.75 462.53 516.647C513.822 487.718 573.26 462.082 644.229 438.277C710.16 416.16 771.012 405.393 830.265 405.393C838.31 405.393 846.427 405.612 854.387 406.003C907.1 408.713 960.22 417.918 1011.61 426.827C1031.64 430.32 1052.35 433.907 1072.64 437.032C1085 438.938 1097.68 441.11 1109.95 443.185C1151.6 450.24 1194.67 457.54 1236.78 457.54C1246.06 457.54 1255.13 457.175 1263.76 456.468C1289.62 454.367 1318.59 448.85 1337.43 424.215C1351.93 405.245 1361.56 381.785 1370.87 359.103C1372.63 354.83 1374.37 350.582 1376.13 346.407C1380.01 337.18 1384 327.902 1388.02 318.553C1410.77 265.683 1434.31 211.007 1442.61 154.745C1450.96 98.2752 1443.05 38.0952 1435.4 -20.1198C1433.72 -32.9868 1431.96 -46.2918 1430.47 -59.1348C1422.71 -125.272 1420.56 -198.295 1493.68 -227.835C1559.94 -254.592 1632.69 -257.34 1703.06 -260L1710.89 -260.305C1725.69 -260.868 1738.7 -261.135 1750.64 -261.135C1821.81 -261.135 1873.51 -251.09 1918.29 -228.542C1977.69 -198.623 2014.58 -141.105 2042.83 -88.7848C2048.03 -79.1648 2053.49 -69.3028 2058.77 -59.7568C2087.11 -8.60976 2116.43 44.2852 2128.35 101.695C2141.26 163.95 2124.49 228.855 2079.89 289.378C2060.06 316.305 2036.92 341.013 2014.55 364.938C2011.6 368.112 2008.62 371.31 2005.64 374.485C1997.88 382.835 1990.26 391.817 1982.89 400.51C1969.24 416.598 1955.11 433.25 1938.9 447.287C1930.18 454.808 1921.66 462.938 1913.43 470.798C1896.44 487.032 1878.86 503.805 1858.18 516.697C1829.15 534.74 1795.49 547.36 1758.16 554.15C1735.23 558.3 1711.31 560.33 1685.01 560.33C1631.74 560.33 1578.3 551.88 1526.59 543.7C1518.02 542.33 1509.35 540.72 1500.15 539.01C1476.2 534.57 1451.42 529.95 1427.79 529.95C1393.23 529.95 1368.53 539.89 1350.08 561.23C1338.69 574.39 1328.54 589.04 1318.73 603.2C1307.67 619.16 1296.23 635.67 1282.83 650.41C1258.61 677.05 1231.45 699.66 1202.1 717.63C1178.12 732.32 1153.45 746.8 1129.59 760.81C1086.27 786.23 1041.48 812.52 999.23 840.96C985.86 849.97 972.23 859.67 959.06 869.01C912.56 902.05 864.482 936.2 809.99 954.22C785.112 962.45 759.002 966.62 732.402 966.62Z" fill="#4D7495" fill-opacity="0.2"/>
<path fill-rule="evenodd" clip-rule="evenodd" d="M788.615 -118.825C768.865 -118.825 749.407 -109.123 735.209 -92.2025C720.245 -74.3675 713.47 -50.9045 717.07 -29.4575C726.58 3.52546 763.677 18.3575 796.207 18.3575C796.22 18.3575 796.22 18.3575 796.22 18.3575C829.557 18.3575 857.025 3.88046 867.9 -19.4365C873.89 -32.2895 873.88 -46.2545 867.84 -60.9275C856.877 -87.6115 830.217 -107.645 810.075 -114.98C803.07 -117.533 795.842 -118.825 788.615 -118.825ZM796.22 20.8955C796.22 20.8955 796.22 20.8955 796.207 20.8955C762.737 20.8825 724.53 5.49046 714.617 -28.8965C710.857 -51.2115 717.852 -75.4415 733.292 -93.8365C747.967 -111.33 768.12 -121.353 788.615 -121.353C796.135 -121.353 803.642 -120.01 810.93 -117.362C831.572 -109.842 858.915 -89.2845 870.17 -61.9045C876.4 -46.7545 876.4 -31.7045 870.17 -18.3615C858.879 5.84546 830.547 20.8955 796.22 20.8955Z" fill="#4D7495" fill-opacity="0.2"/>
<path fill-rule="evenodd" clip-rule="evenodd" d="M205.45 982.69C172.93 967.06 154.79 949.34 148.382 926.92C140.727 900.17 148.027 871.82 155.082 844.43C155.865 841.43 156.632 838.45 157.377 835.47C178.459 751.37 173.979 683 143.669 626.46C114.385 571.82 63.97 538.01 15.215 505.32C-34.345 472.093 -85.59 437.74 -114.436 381.515C-120.393 369.92 -125.495 357.857 -130 345.553V352.683C-126.045 362.912 -121.663 372.947 -116.67 382.688C-87.533 439.5 -36.005 474.02 13.81 507.442C62.322 539.96 112.467 573.58 141.459 627.66C171.452 683.62 175.86 751.39 154.937 834.86C154.192 837.82 153.422 840.79 152.655 843.79C145.842 870.24 138.115 900.19 145.952 927.61C154.667 958.08 183.465 974.92 204.362 984.96C243.169 1003.58 284.037 1017.06 324.895 1028H334.832C291.02 1016.65 247.027 1002.63 205.45 982.69Z" fill="#4D7495" fill-opacity="0.2"/>
<path fill-rule="evenodd" clip-rule="evenodd" d="M62.212 652.17C37.247 599.31 -10.298 565.5 -56.271 532.81C-81.733 514.695 -107.673 496.237 -130 474.41V477.878C-107.956 499.117 -82.613 517.16 -57.723 534.86C-12.008 567.38 35.26 601 59.942 653.25C111.04 761.45 0.152008 861.06 -73.225 926.97L-82.125 935.01C-98.725 949.97 -115.168 965.82 -130 983.35V987.3C-114.753 968.97 -97.7 952.44 -80.453 936.89L-71.553 928.88C2.38501 862.45 114.115 762.08 62.212 652.17Z" fill="#4D7495" fill-opacity="0.2"/>
<path fill-rule="evenodd" clip-rule="evenodd" d="M823.382 459.813C821.257 459.813 819.145 459.835 817.022 459.86C749.979 460.787 681.817 481.468 614.432 521.31C537.492 566.79 504.62 617.89 516.705 673.14C541.837 750.78 602.885 883.83 729.117 901.39C737.077 902.49 745.22 903.05 753.3 903.05C812.725 903.05 867.447 873.14 917.74 840.82C934.37 830.13 951.57 819.53 968.19 809.3C1010.92 783 1055.09 755.83 1094.52 723.83C1097.21 721.63 1100.03 719.38 1102.95 717.04C1139.15 687.99 1188.74 648.21 1187.69 600.54C1186.33 539.62 1106.34 516.622 1053.41 501.388C1048.84 500.095 1044.5 498.85 1040.48 497.652C986 481.418 904.23 459.813 823.382 459.813ZM753.3 905.59C753.3 905.59 753.312 905.59 753.3 905.59C745.097 905.59 736.845 905.03 728.777 903.9C601.189 886.16 539.63 752.12 514.287 673.83C501.897 617.23 535.172 565.23 613.152 519.112C680.925 479.05 749.504 458.25 816.985 457.322C900.14 456.175 985.13 478.513 1041.19 495.213C1045.21 496.407 1049.54 497.652 1054.09 498.973C1107.74 514.402 1188.81 537.72 1190.2 600.49C1191.29 649.41 1141.13 689.64 1104.51 719.01C1101.6 721.36 1098.8 723.61 1096.11 725.8C1056.55 757.91 1012.31 785.13 969.51 811.47C952.88 821.7 935.71 832.27 919.1 842.94C868.487 875.49 813.372 905.59 753.3 905.59Z" fill="#4D7495" fill-opacity="0.2"/>
<path fill-rule="evenodd" clip-rule="evenodd" d="M834.537 513.277C766.705 513.277 679.485 535.91 638.127 599.43C623.54 621.87 617.437 649.61 620.977 677.51C629.447 735.05 658.122 784.98 699.627 814.47C723.455 831.42 750.652 839.99 780.462 839.99C780.472 839.99 780.472 839.99 780.472 839.99C806.682 839.99 834.527 833.42 863.225 820.48C917.84 795.82 977.8 755.64 1027.74 710.18C1073.76 668.26 1088.2 631.39 1070.67 600.56C1053.15 569.77 1015.34 553.07 980.67 540.82C945.16 528.25 907.11 519.603 867.557 515.11C856.915 513.888 845.805 513.277 834.537 513.277ZM780.472 842.53C780.472 842.53 780.472 842.53 780.462 842.53C750.115 842.53 722.43 833.79 698.185 816.55C656.107 786.67 627.055 736.11 618.487 677.85C614.872 649.31 621.097 620.99 636.027 598.04C677.935 533.69 766.044 510.74 834.537 510.74C845.902 510.74 857.11 511.35 867.84 512.57C907.57 517.088 945.82 525.777 981.5 538.42C1016.62 550.85 1054.92 567.79 1072.86 599.31C1090.8 630.86 1075.77 669.84 1029.42 712.06C979.3 757.69 919.11 798.04 864.262 822.78C835.222 835.88 807.035 842.53 780.472 842.53Z" fill="#4D7495" fill-opacity="0.2"/>
<path fill-rule="evenodd" clip-rule="evenodd" d="M741.532 690.33C750.822 732.69 787.907 747.78 819.56 747.78C828.68 747.78 837.87 746.6 846.892 744.31C882.79 735.11 938.36 701.97 943.61 660.13C945.21 647.43 941.79 636.06 933.46 626.32C912.15 601.39 865.532 593.79 843.865 593.28C842.742 593.26 841.629 593.24 840.52 593.24C811.1 593.24 785.16 602.37 765.482 619.67C744.327 638.25 743.072 661.5 741.629 688.42L741.532 690.33ZM819.56 750.32C786.895 750.32 748.577 734.67 739.03 690.7L738.995 690.53L739.115 688.28C740.532 661.93 741.862 637.06 763.834 617.75C783.965 600.07 810.49 590.7 840.52 590.7C841.655 590.7 842.79 590.72 843.925 590.75C865.985 591.28 913.48 599.04 935.37 624.66C944.18 634.98 947.79 647.02 946.11 660.45C940.7 703.46 884.09 737.38 847.515 746.75C838.285 749.12 828.887 750.32 819.56 750.32Z" fill="#4D7495" fill-opacity="0.2"/>
</svg>
